<svg width="221.000000" height="50.000000" viewBox="0 0 221 50" fill="none" xmlns="http://www.w3.org/2000/svg" xmlns:xlink="http://www.w3.org/1999/xlink">
	<desc>
			Created with Pixso.
	</desc>
	<defs>
		<clipPath id="clip4492_2055">
			<rect width="221.000000" height="50.000000" fill="white" fill-opacity="0"/>
		</clipPath>
	</defs>
	<rect width="221.000000" height="50.000000" fill="#FFFFFF" fill-opacity="0"/>
	<g clip-path="url(#clip4492_2055)">
		<path d="M83.2307 23.751C86.2668 19.2627 87.1299 15.3838 85.7388 13.9927C85.3021 13.5664 84.6421 13.3428 83.7791 13.3428C81.8801 13.3428 79.0775 14.4092 75.9805 16.501C77.27 17.4961 78.5597 18.623 79.829 19.8921C81.0983 21.1616 82.2356 22.4512 83.2205 23.7407L83.2307 23.751Z" fill="#FFFFFF" fill-opacity="1.000000" fill-rule="nonzero"/>
		<path d="M69.646 19.9019C70.9153 18.6328 72.2048 17.4956 73.4945 16.5107C70.3973 14.4189 67.5947 13.3525 65.6959 13.3525C64.8429 13.3525 64.1727 13.5659 63.7361 14.0024C62.345 15.3936 63.2081 19.2622 66.2443 23.7607C67.2394 22.4712 68.3767 21.1816 69.6359 19.9121L69.646 19.9019Z" fill="#FFFFFF" fill-opacity="1.000000" fill-rule="nonzero"/>
		<path d="M82.3354 24.9995C81.3403 23.6694 80.1624 22.2988 78.8018 20.938C77.441 19.5771 76.0702 18.3994 74.74 17.4043C73.4098 18.3994 72.0389 19.5771 70.6782 20.938C69.3175 22.2988 68.1396 23.6694 67.1445 24.9995C68.1396 26.3301 69.3175 27.7007 70.6782 29.0615C72.0389 30.4224 73.4098 31.6001 74.74 32.5952C76.0702 31.6001 77.441 30.4224 78.8018 29.0615C80.1624 27.7007 81.3403 26.3301 82.3354 24.9995Z" fill="#FFFFFF" fill-opacity="1.000000" fill-rule="nonzero"/>
		<path d="M66.256 26.249C63.2198 30.7373 62.3567 34.6162 63.7478 36.0073C65.139 37.3984 69.0078 36.5352 73.5062 33.4893C72.2166 32.4941 70.927 31.3564 69.6577 30.0977C68.3884 28.8281 67.2511 27.5386 66.2661 26.249L66.256 26.249Z" fill="#FFFFFF" fill-opacity="1.000000" fill-rule="nonzero"/>
		<path d="M52.0269 0L12.2422 0C5.33728 0 -0.257812 5.59521 -0.257812 12.5L-0.257812 37.5C-0.257812 44.4048 5.33728 50 12.2422 50L87.2422 50C94.1471 50 99.7422 44.4048 99.7422 37.5L99.7422 0L52.0269 0ZM49.7422 48.5376L12.2422 48.5376C6.15979 48.5376 1.20447 43.5825 1.20447 37.5L1.20447 12.5C1.20447 6.41748 6.15979 1.4624 12.2422 1.4624L49.7422 1.4624L49.7422 48.5376ZM86.7751 37.0327C86.0541 37.7539 85.0184 38.0991 83.7897 38.0991C81.3628 38.0991 78.1235 36.769 74.7422 34.3926C71.3608 36.769 68.1216 38.0991 65.6947 38.0991C64.4558 38.0991 63.4303 37.7539 62.7092 37.0327C60.5668 34.8901 61.7548 30.1074 65.3392 25C61.7548 19.8926 60.5668 15.1099 62.7092 12.9673C64.8518 10.8247 69.6345 12.0127 74.7422 15.5972C79.8499 12.0127 84.6326 10.8247 86.7751 12.9673C88.9176 15.1099 87.7296 19.8926 84.1451 25C87.7296 30.1074 88.9176 34.8901 86.7751 37.0327Z" fill="#FFFFFF" fill-opacity="1.000000" fill-rule="nonzero"/>
		<path d="M79.8407 30.0977C78.5714 31.3667 77.2817 32.5039 75.9922 33.4893C80.4805 36.5254 84.3594 37.3882 85.7505 36.0073C87.1416 34.6162 86.2786 30.7476 83.2424 26.249C82.2473 27.5386 81.11 28.8281 79.8508 30.0977L79.8407 30.0977Z" fill="#FFFFFF" fill-opacity="1.000000" fill-rule="nonzero"/>
		<path d="M10.2926 15.2114C8.95227 16.8867 8.35315 19.1714 8.76941 21.0298C9.84583 25.8428 14.3137 26.6147 17.5936 27.041C20.183 27.376 22.6606 27.8535 22.5996 30.1587C22.5286 32.5547 19.8275 33.144 18.0505 33.144C13.4303 33.144 13.278 29.7319 13.278 29.7319L8.3125 29.7319C8.38354 31.0112 8.76941 33.0728 10.3535 34.8398C12.0797 36.7793 14.6793 37.7539 18.0607 37.7539C20.6602 37.7539 23.0261 36.9111 24.7118 35.4082L24.7118 37.4697L29.3422 37.4697L29.3422 31.5698L30.9771 29.7725L35.6582 37.4697L41.0502 37.4697L34.2366 26.2085L41.0502 18.7451L35.049 18.7451L29.3422 25L29.3422 12.5L24.7118 12.5L24.7118 15.5259C24.5594 15.333 24.397 15.1401 24.2244 14.9473C22.5387 13.1602 20.1118 12.2563 17.0046 12.2563C13.4202 12.2563 11.3792 13.8608 10.2926 15.2114ZM17.0858 16.5923C19.1675 16.5923 21.2491 17.0596 22.0411 19.9531L24.7017 19.9531L24.7017 24.3809C21.3811 21.6489 14.1715 23.3652 13.3998 19.9634C12.9937 18.1763 14.7706 16.5923 17.0858 16.5923Z" fill="#FFFFFF" fill-opacity="1.000000" fill-rule="nonzero"/>
		<path d="M111.538 34.3423C111.852 34.4438 112.208 34.4946 112.624 34.4946C113.142 34.4946 113.558 34.3423 113.873 34.0273C114.188 33.7124 114.391 33.2964 114.493 32.8394L107.902 18.8872L112.289 18.8872L116.513 28.8994L120.22 18.8872L124.393 18.8872L118.453 32.6362C117.671 34.4536 116.869 35.8042 115.985 36.6572C115.102 37.5405 114.147 37.9775 113.081 37.9775C112.715 37.9775 112.431 37.9775 112.198 37.9268C111.934 37.896 111.731 37.8452 111.548 37.7944L111.05 37.6421C110.918 37.5913 110.786 37.5405 110.664 37.5103L110.664 33.9868C110.898 34.1392 111.182 34.271 111.517 34.3521L111.538 34.3423Z" fill="#FFFFFF" fill-opacity="1.000000" fill-rule="nonzero"/>
		<path d="M131.543 32.2705C131.279 32.3521 130.995 32.4028 130.69 32.4736C130.375 32.5244 130.04 32.5752 129.705 32.606C129.37 32.6567 129.035 32.6567 128.72 32.6567C127.918 32.6567 127.238 32.5752 126.618 32.4536C126.019 32.3013 125.501 32.0879 125.085 31.7832C124.669 31.4683 124.354 31.0522 124.151 30.5342C123.948 30.0366 123.836 29.4175 123.836 28.6963L123.836 23.7207L127.41 23.7207L127.41 27.9956C127.41 28.3813 127.461 28.7266 127.563 28.9502C127.644 29.2144 127.796 29.4175 127.999 29.5698C128.202 29.7217 128.436 29.8335 128.751 29.8843C129.065 29.9351 129.421 29.9658 129.837 29.9658C130.457 29.9658 130.924 29.915 131.289 29.8135C131.655 29.6812 131.939 29.5493 132.142 29.4272L132.142 23.7207L135.717 23.7207L135.717 37.5205L132.142 37.5205L132.142 32.0776C131.99 32.1284 131.777 32.21 131.523 32.2808L131.543 32.2705Z" fill="#FFFFFF" fill-opacity="1.000000" fill-rule="nonzero"/>
		<path d="M149.588 35.7944C149.619 36.0586 149.69 36.292 149.771 36.4141C149.852 36.5967 149.923 36.6982 150.035 36.7793C150.137 36.8608 150.218 36.9116 150.35 36.9316L150.35 37.5005L146.38 37.5005L146.177 36.8506C146.075 36.5864 146.044 36.2817 146.044 35.8857L145.242 36.688C144.958 36.9219 144.674 37.1245 144.339 37.3076C144.003 37.4902 143.638 37.6426 143.201 37.7441C142.765 37.8457 142.247 37.8965 141.648 37.8965C141.049 37.8965 140.46 37.8154 139.932 37.6323C139.414 37.4497 138.977 37.1655 138.581 36.8301C138.215 36.4648 137.911 36.0278 137.698 35.48C137.495 34.9619 137.383 34.3423 137.383 33.6416C137.383 33.0732 137.464 32.5552 137.647 32.0576C137.83 31.5601 138.083 31.1538 138.398 30.7886C138.733 30.4229 139.129 30.1182 139.586 29.8848C140.053 29.6206 140.571 29.4683 141.17 29.3872L144.674 28.8691C144.806 28.8389 144.938 28.8389 145.09 28.7881C145.242 28.7573 145.374 28.707 145.506 28.6055C145.638 28.5239 145.74 28.4224 145.821 28.2905C145.902 28.1382 145.953 27.9556 145.953 27.7217C145.953 27.4883 145.902 27.2852 145.852 27.1025C145.77 26.8994 145.648 26.7368 145.486 26.605C145.303 26.4526 145.1 26.3408 144.816 26.2695C144.531 26.1885 144.166 26.168 143.75 26.168C143.252 26.168 142.897 26.2188 142.612 26.3003C142.297 26.4019 142.064 26.5645 141.912 26.7163C141.729 26.8994 141.597 27.1025 141.526 27.3154L141.373 28.0669L137.799 28.0669C137.799 27.9146 137.83 27.6812 137.88 27.3662C137.931 27.082 138.033 26.7471 138.195 26.3813C138.327 26.0464 138.561 25.6807 138.815 25.3154C139.079 24.9497 139.414 24.6147 139.881 24.2998C140.297 24.0156 140.845 23.7515 141.465 23.5688C142.084 23.3857 142.815 23.2842 143.699 23.2539C144.917 23.2539 145.933 23.3857 146.704 23.6196C147.456 23.8833 148.055 24.2188 148.492 24.6045C148.908 25.021 149.192 25.4575 149.345 25.9551C149.477 26.4526 149.548 26.9399 149.548 27.4375L149.548 34.7485C149.548 35.165 149.578 35.5 149.629 35.7642L149.588 35.7944ZM145.283 31.0728C145.049 31.1743 144.765 31.2759 144.4 31.3369L143.445 31.5195C143.029 31.6006 142.663 31.6719 142.358 31.7837C142.044 31.8853 141.79 32.0171 141.577 32.1694C141.373 32.3521 141.211 32.5552 141.109 32.7891C141.008 33.0225 140.957 33.3066 140.957 33.6724C140.957 33.9565 141.008 34.2207 141.089 34.4238C141.191 34.6572 141.323 34.8096 141.505 34.9722C141.658 35.104 141.841 35.2358 142.054 35.2866C142.287 35.3682 142.521 35.3882 142.785 35.3882C142.917 35.3882 143.1 35.3579 143.303 35.3374C143.506 35.3071 143.719 35.2563 143.973 35.1851C144.207 35.0835 144.44 34.9819 144.674 34.8198C144.907 34.6875 145.11 34.4844 145.293 34.251C145.496 34.0176 145.659 33.7334 145.76 33.3677C145.862 33.0327 145.943 32.6367 145.943 32.1797L145.943 30.7783C145.74 30.9102 145.506 31.0117 145.293 31.0933L145.283 31.0728Z" fill="#FFFFFF" fill-opacity="1.000000" fill-rule="nonzero"/>
		<path d="M159.599 27.6299C159.498 27.3457 159.335 27.1118 159.162 26.9292C158.959 26.7261 158.726 26.5942 158.462 26.4927C158.178 26.4111 157.842 26.3604 157.446 26.3604C156.847 26.3604 156.38 26.4927 156.025 26.7769C155.659 27.061 155.375 27.3965 155.192 27.8125C154.989 28.249 154.877 28.7163 154.806 29.2139C154.755 29.7114 154.705 30.1685 154.705 30.6152C154.705 31.062 154.735 31.5493 154.786 32.0366C154.837 32.5547 154.938 32.9912 155.152 33.4077C155.334 33.8242 155.588 34.1895 155.984 34.4434C156.35 34.7275 156.837 34.8599 157.467 34.8599C157.883 34.8599 158.249 34.7783 158.553 34.5957C158.838 34.4434 159.102 34.23 159.305 33.9966C159.508 33.7324 159.67 33.4785 159.772 33.1943C159.853 32.9302 159.904 32.6768 159.904 32.4429L163.641 32.4429C163.641 32.6768 163.61 32.9609 163.539 33.3267C163.438 33.7124 163.306 34.0776 163.123 34.4941C162.94 34.8799 162.686 35.2964 162.392 35.7129C162.057 36.1289 161.691 36.4946 161.224 36.7993C160.757 37.1343 160.239 37.3984 159.62 37.6016C159 37.8047 158.269 37.916 157.467 37.916C156.431 37.916 155.497 37.7637 154.695 37.4492C153.892 37.1138 153.212 36.647 152.674 36.0273C152.126 35.4082 151.709 34.6567 151.425 33.7227C151.141 32.8188 150.988 31.7729 150.988 30.6152C150.988 29.4575 151.141 28.3813 151.455 27.4775C151.77 26.5942 152.207 25.8223 152.776 25.1929C153.344 24.5732 154.024 24.1064 154.827 23.7915C155.609 23.4565 156.512 23.2939 157.477 23.2939C157.893 23.2939 158.33 23.3447 158.797 23.3955C159.234 23.4463 159.68 23.5781 160.117 23.7305C160.554 23.9136 160.97 24.1162 161.386 24.3804C161.772 24.6445 162.138 24.9795 162.473 25.3652C162.788 25.7515 163.042 26.2183 163.255 26.7363C163.458 27.2539 163.59 27.8735 163.641 28.5742L159.904 28.5742C159.823 28.2085 159.751 27.8735 159.62 27.6196L159.599 27.6299Z" fill="#FFFFFF" fill-opacity="1.000000" fill-rule="nonzero"/>
		<path d="M176.109 23.7104L176.109 26.6147L171.935 26.6147L171.935 37.5103L168.361 37.5103L168.361 26.6147L164.188 26.6147L164.188 23.7104L176.119 23.7104L176.109 23.7104Z" fill="#FFFFFF" fill-opacity="1.000000" fill-rule="nonzero"/>
		<path d="M186.061 28.6963L186.061 23.7207L189.635 23.7207L189.635 37.5205L186.061 37.5205L186.061 31.6108L180.801 31.6108L180.801 37.5205L177.227 37.5205L177.227 23.7207L180.801 23.7207L180.801 28.6963L186.061 28.6963Z" fill="#FFFFFF" fill-opacity="1.000000" fill-rule="nonzero"/>
		<path d="M195.664 32.2197L200.701 23.7104L204.458 23.7104L204.458 37.5103L200.884 37.5103L200.884 29.1836L200.833 29.1836L195.959 37.5103L192.039 37.5103L192.039 23.7104L195.613 23.7104L195.613 32.2197L195.664 32.2197Z" fill="#FFFFFF" fill-opacity="1.000000" fill-rule="nonzero"/>
		<path d="M215.651 23.7104L220.423 23.7104L214.717 29.4375L220.657 37.5L215.986 37.5L211.944 31.6611L210.492 33.1436L210.492 37.5L206.918 37.5L206.918 23.7002L210.492 23.7002L210.492 28.9399L215.651 23.7002L215.651 23.7104Z" fill="#FFFFFF" fill-opacity="1.000000" fill-rule="nonzero"/>
	</g>
</svg>
