<svg width="178.750000" height="34.763947" viewBox="0 0 178.75 34.7639" fill="none" xmlns="http://www.w3.org/2000/svg" xmlns:xlink="http://www.w3.org/1999/xlink">
	<desc>
			Created with Pixso.
	</desc>
	<defs/>
	<line id="Line" x1="112.750000" y1="16.881989" x2="178.750000" y2="16.881989" stroke="#0063A8" stroke-opacity="1.000000" stroke-width="1.000000"/>
	<line id="Line" x1="0.000000" y1="16.881989" x2="66.000000" y2="16.881989" stroke="#0063A8" stroke-opacity="1.000000" stroke-width="1.000000"/>
	<circle id="Ellipse" cx="88.875000" cy="17.381989" r="16.000000" stroke="#0063A8" stroke-opacity="1.000000" stroke-width="2.763955" stroke-dasharray="0.979166 8.39285"/>
	<mask id="mask_4492_1166" fill="white">
		<path id="Union" d="M88.2639 6.19427L81.3582 19.3491C81.0085 20.015 81.4915 20.8139 82.2437 20.8139L85.9265 20.8139L85.7466 27.3271C85.688 29.4452 88.5317 30.1881 89.5166 28.3119L96.4224 15.1571C96.772 14.4912 96.2891 13.6923 95.5369 13.6923L91.854 13.6923L92.0339 7.17914C92.0925 5.06097 89.2488 4.31812 88.2639 6.19427Z" clip-rule="evenodd" fill="" fill-opacity="1.000000" fill-rule="evenodd"/>
	</mask>
	<path id="Union" d="M88.2639 6.19427L81.3582 19.3491C81.0085 20.015 81.4915 20.8139 82.2437 20.8139L85.9265 20.8139L85.7466 27.3271C85.688 29.4452 88.5317 30.1881 89.5166 28.3119L96.4224 15.1571C96.772 14.4912 96.2891 13.6923 95.5369 13.6923L91.854 13.6923L92.0339 7.17914C92.0925 5.06097 89.2488 4.31812 88.2639 6.19427Z" clip-rule="evenodd" fill="#FFDF4E" fill-opacity="1.000000" fill-rule="evenodd" mask="url(#mask_4492_1166)"/>
	<path id="Union" d="M91.8923 12.3044L92.0339 7.17914C92.0925 5.06097 89.2488 4.31812 88.2639 6.19427L81.3582 19.3491C81.0085 20.015 81.4915 20.8139 82.2437 20.8139L85.9265 20.8139L85.8882 22.2018L85.7466 27.3271C85.688 29.4452 88.5317 30.1881 89.5166 28.3119L96.4224 15.1571C96.772 14.4912 96.2891 13.6923 95.5369 13.6923L91.854 13.6923L91.8923 12.3044ZM82.8852 19.4261L89.4927 6.83936Q89.5989 6.63718 89.7638 6.5596Q89.777 6.5534 89.7905 6.548Q89.8249 6.53432 89.8604 6.5252Q90.014 6.48576 90.1895 6.53162Q90.3652 6.57753 90.4798 6.68723Q90.5062 6.71243 90.5293 6.741Q90.5389 6.75289 90.5478 6.76535Q90.653 6.91344 90.6467 7.14081L90.4272 15.0802L94.8953 15.0802L88.2876 27.6668Q88.1818 27.8687 88.0173 27.9463Q88.0038 27.9526 87.99 27.9582Q87.9556 27.9719 87.92 27.981Q87.7665 28.0204 87.5911 27.9746Q87.4154 27.9287 87.3008 27.819Q87.2744 27.7938 87.2512 27.7652Q87.2416 27.7532 87.2327 27.7408Q87.1275 27.5927 87.1338 27.3654L87.3533 19.4261L82.8852 19.4261Z" clip-rule="evenodd" fill="#0063A8" fill-opacity="1.000000" fill-rule="evenodd"/>
</svg>
