<svg width="32.000000" height="32.000000" viewBox="0 0 32 32" fill="none" xmlns="http://www.w3.org/2000/svg" xmlns:xlink="http://www.w3.org/1999/xlink">
	<desc>
			Created with Pixso.
	</desc>
	<defs>
		<clipPath id="clip4492_2049">
			<rect id="Frame" width="18.000000" height="18.000000" transform="translate(7.000000 7.000000)" fill="white" fill-opacity="0"/>
		</clipPath>
		<clipPath id="clip4492_2047">
			<rect id="Frame" width="32.000000" height="32.000000" fill="white" fill-opacity="0"/>
		</clipPath>
	</defs>
	<g clip-path="url(#clip4492_2047)">
		<rect id="Rectangle" rx="16.000000" width="32.000000" height="32.000000" fill="#EFF5FB" fill-opacity="1.000000"/>
		<g clip-path="url(#clip4492_2049)">
			<path id="Vector" d="M24.4702 10.7134C23.834 10.9946 23.1593 11.1797 22.4685 11.2617C23.1967 10.8262 23.7416 10.1406 24.0018 9.3335C23.3186 9.73975 22.5693 10.0249 21.7886 10.1792C21.264 9.61816 20.5688 9.24561 19.811 9.12061C19.0532 8.99512 18.2751 9.12354 17.5979 9.48633C16.9207 9.84863 16.3822 10.4248 16.0662 11.125C15.7501 11.8247 15.6742 12.6099 15.8502 13.3574C14.4645 13.2881 13.1088 12.9277 11.8713 12.3003C10.6338 11.6733 9.54199 10.7925 8.66687 9.71582C8.35718 10.248 8.19434 10.8525 8.19519 11.4683C8.19519 12.6768 8.81018 13.7441 9.74524 14.3691C9.19189 14.3516 8.65076 14.2021 8.16687 13.9331L8.16687 13.9766C8.16699 14.7812 8.44556 15.5615 8.95508 16.1841C9.4646 16.8071 10.174 17.2344 10.9628 17.394C10.4491 17.5332 9.91052 17.5537 9.3877 17.4541C9.61011 18.147 10.0436 18.7524 10.6273 19.1865C11.2112 19.6206 11.9161 19.8613 12.6436 19.875C11.9207 20.4429 11.0929 20.8623 10.2076 21.1099C9.32239 21.3579 8.39697 21.4287 7.48438 21.3184C9.07751 22.3428 10.932 22.8867 12.826 22.8848C19.2368 22.8848 22.7427 17.5742 22.7427 12.9683C22.7427 12.8184 22.7385 12.6665 22.7319 12.5181C23.4143 12.0249 24.0032 11.4141 24.4711 10.7139L24.4702 10.7134Z" fill="#333333" fill-opacity="1.000000" fill-rule="nonzero"/>
		</g>
	</g>
</svg>
